<svg width="32" height="32" viewBox="0 0 32 32" fill="none" xmlns="http://www.w3.org/2000/svg">
<path d="M29.5 2.5H2.5V29.5H29.5V2.5Z" fill="url(#paint0_linear_7_118)"/>
<path d="M24.6001 7.4H7.4V24.6001H24.6001V7.4Z" fill="url(#paint1_linear_7_118)"/>
<path d="M27.2001 4.79999H4.80005V27.15H27.15V4.79999H27.2001Z" fill="url(#paint2_linear_7_118)"/>
<path d="M7.4 7.4H24.6L29.5 2.5H2.5L7.4 7.4Z" fill="url(#paint3_linear_7_118)"/>
<path d="M24.6 24.6H7.4L2.5 29.5H29.5L24.6 24.6Z" fill="url(#paint4_linear_7_118)"/>
<path d="M24.6 7.4V24.6L29.5 29.5V2.5L24.6 7.4Z" fill="url(#paint5_linear_7_118)"/>
<path d="M7.4 24.6V7.4L2.5 2.5V29.5L7.4 24.6Z" fill="url(#paint6_linear_7_118)"/>
<path d="M4.8 4.8H27.2L29.5 2.5H2.5L4.8 4.8Z" fill="url(#paint7_linear_7_118)"/>
<path d="M4.8 4.8H27.2L29.5 2.5H2.5L4.8 4.8Z" fill="url(#paint8_linear_7_118)"/>
<path d="M4.8 4.8H27.2L29.5 2.5H2.5L4.8 4.8Z" fill="url(#paint9_linear_7_118)"/>
<path d="M27.2001 4.79999H4.80005L7.40005 7.4H24.6L27.2001 4.79999Z" fill="url(#paint10_linear_7_118)"/>
<path d="M27.2 27.2H4.8L2.5 29.5H29.5L27.2 27.2Z" fill="url(#paint11_linear_7_118)"/>
<path d="M27.2 27.2H4.8L2.5 29.5H29.5L27.2 27.2Z" fill="url(#paint12_linear_7_118)"/>
<path d="M27.2 27.2H4.8L2.5 29.5H29.5L27.2 27.2Z" fill="url(#paint13_linear_7_118)"/>
<path d="M27.2 27.2L29.5 29.5V2.5L27.2 4.8V27.2Z" fill="url(#paint14_linear_7_118)"/>
<path d="M27.2 27.2L29.5 29.5V2.5L27.2 4.8V27.2Z" fill="url(#paint15_linear_7_118)"/>
<path d="M27.2 27.2L29.5 29.5V2.5L27.2 4.8V27.2Z" fill="url(#paint16_linear_7_118)"/>
<path d="M27.2 27.2L29.5 29.5V2.5L27.2 4.8V27.2Z" fill="url(#paint17_linear_7_118)"/>
<path d="M4.8 27.2V4.8L2.5 2.5V29.5L4.8 27.2Z" fill="url(#paint18_linear_7_118)"/>
<path d="M4.8 27.2V4.8L2.5 2.5V29.5L4.8 27.2Z" fill="url(#paint19_linear_7_118)"/>
<path d="M4.80005 4.79999V27.2L7.40005 24.6V7.4L4.80005 4.79999Z" fill="url(#paint20_linear_7_118)"/>
<path d="M26 6H6V26H26V6Z" fill="url(#paint21_linear_7_118)"/>
<path d="M16 22.225H8.5V23.475H16V22.225Z" fill="white"/>
<path d="M28.0944 32H11.9057C10.8699 32 9.8764 31.5886 9.14395 30.8561C8.4115 30.1237 8 29.1302 8 28.0944V23.9056C8 23.3927 8.101 22.8848 8.2973 22.411C8.4936 21.9371 8.7813 21.5066 9.14395 21.1439C9.50665 20.7812 9.93715 20.4936 10.411 20.2973C10.8849 20.101 11.3928 20 11.9057 20H28.0944C29.1302 20 30.1236 20.4114 30.8561 21.1439C31.5885 21.8763 32 22.8698 32 23.9056V28.0944C32 29.1302 31.5885 30.1237 30.8561 30.8561C30.1236 31.5886 29.1302 32 28.0944 32Z" fill="#FDB60D"/>
<path d="M12.4562 23.378H16.5756V24.4473H13.6498V25.5551H16.2246V26.6238H13.6498V27.7708H16.6147V28.8395H12.4562V23.378Z" fill="black"/>
<path d="M19.5557 23.3395H20.6635L23.0041 28.8395H21.7479L21.2486 27.6148H18.9396L18.4403 28.8395H17.2156L19.5557 23.3395ZM20.82 26.5537L20.0941 24.7826L19.3687 26.5537H20.82Z" fill="black"/>
<path d="M23.8468 23.378H26.0782C27.3811 23.378 28.1689 24.1507 28.1689 25.2661V25.2818C28.1689 26.5455 27.186 27.2013 25.9614 27.2013H25.0486V28.8394H23.8468V23.378ZM26 26.1322C26.1181 26.1472 26.238 26.137 26.3519 26.1025C26.4658 26.068 26.5711 26.0097 26.661 25.9317C26.7508 25.8536 26.8232 25.7574 26.8733 25.6495C26.9234 25.5415 26.9502 25.4242 26.9519 25.3052V25.2894C26.9519 24.7515 26.5775 24.4625 25.9766 24.4625H25.0486V26.1322H26Z" fill="black"/>
<path d="M16.725 9.37502V8H13V9.37502H14.05V14.1H13V15.45H16.725V14.1H15.7V9.37502H16.725Z" fill="white"/>
<path d="M21.225 9.37502V8H17.5V9.37502H18.55V15.45H19.3625H20.2V9.37502H21.225Z" fill="white"/>
<path d="M9.41381 15.5C8.84731 15.5 8.35469 15.401 7.96056 15.1782C7.5665 14.9554 7.24631 14.7079 7 14.3861L8.00987 13.2475C8.2315 13.4703 8.42856 13.6683 8.65025 13.7921C8.87194 13.9158 9.09362 13.9901 9.3645 13.9901C9.66012 13.9901 9.90637 13.8911 10.0788 13.6931C10.2512 13.4951 10.3498 13.198 10.3498 12.7525V8H12V12.8267C12 13.2722 11.9508 13.6436 11.8276 13.9654C11.7044 14.2871 11.532 14.5594 11.3104 14.7822C11.0887 15.0049 10.8177 15.1782 10.4976 15.302C10.1527 15.4258 9.80788 15.5 9.41381 15.5Z" fill="white"/>
<defs>
<linearGradient id="paint0_linear_7_118" x1="32.5183" y1="32.518" x2="-5.6208" y2="-5.6206" gradientUnits="userSpaceOnUse">
<stop offset="0.3475" stop-color="#087CFA"/>
<stop offset="0.8562" stop-color="#FE2857"/>
<stop offset="1" stop-color="#FE2857"/>
</linearGradient>
<linearGradient id="paint1_linear_7_118" x1="26.5117" y1="26.5115" x2="2.24133" y2="2.24147" gradientUnits="userSpaceOnUse">
<stop offset="0.3475" stop-color="#087CFA"/>
<stop offset="0.8562" stop-color="#FE2857"/>
<stop offset="1" stop-color="#FE2857"/>
</linearGradient>
<linearGradient id="paint2_linear_7_118" x1="29.6833" y1="29.6831" x2="-1.9099" y2="-1.90992" gradientUnits="userSpaceOnUse">
<stop stop-color="#087CFA"/>
<stop offset="0.2816" stop-color="#0855FA"/>
<stop offset="0.7644" stop-color="#E0326B"/>
<stop offset="0.7721" stop-color="#FE2857"/>
<stop offset="1" stop-color="#FE2857"/>
</linearGradient>
<linearGradient id="paint3_linear_7_118" x1="31.4403" y1="10.1577" x2="3.4797" y2="-1.0455" gradientUnits="userSpaceOnUse">
<stop offset="0.3475" stop-color="#087CFA"/>
<stop offset="0.7698" stop-color="#F01A72"/>
<stop offset="0.9872" stop-color="#FE2857"/>
</linearGradient>
<linearGradient id="paint4_linear_7_118" x1="32.5611" y1="30.2424" x2="7.4092" y2="26.0136" gradientUnits="userSpaceOnUse">
<stop offset="0.2513" stop-color="#087CFA" stop-opacity="0.9703"/>
<stop offset="0.5721" stop-color="#087CFA"/>
<stop offset="0.8921" stop-color="#087CFA" stop-opacity="0.5"/>
</linearGradient>
<linearGradient id="paint5_linear_7_118" x1="26.7293" y1="3.02955" x2="27.5498" y2="30.3273" gradientUnits="userSpaceOnUse">
<stop offset="0.018393" stop-color="#429EFA"/>
<stop offset="0.518" stop-color="#087CFA"/>
<stop offset="1" stop-color="#965CF3" stop-opacity="0.9769"/>
</linearGradient>
<linearGradient id="paint6_linear_7_118" x1="6.07565" y1="27.5039" x2="3.04605" y2="3.04635" gradientUnits="userSpaceOnUse">
<stop offset="0.323" stop-color="#087CFA"/>
<stop offset="0.7201" stop-color="#DF0373"/>
<stop offset="1" stop-color="#FE2857"/>
</linearGradient>
<linearGradient id="paint7_linear_7_118" x1="14.9084" y1="3.60505" x2="8.34425" y2="8.84375" gradientUnits="userSpaceOnUse">
<stop offset="0.1018" stop-color="#FF00BB" stop-opacity="0"/>
<stop offset="0.8133" stop-color="#FCBD36"/>
<stop offset="1" stop-color="white" stop-opacity="0.9"/>
</linearGradient>
<linearGradient id="paint8_linear_7_118" x1="29.9259" y1="5.75605" x2="21.0895" y2="4.30435" gradientUnits="userSpaceOnUse">
<stop offset="0.018393" stop-color="#00FFFA"/>
<stop offset="0.8562" stop-color="#07C3F2" stop-opacity="0"/>
</linearGradient>
<linearGradient id="paint9_linear_7_118" x1="16.3997" y1="-0.59795" x2="15.8854" y2="3.38775" gradientUnits="userSpaceOnUse">
<stop offset="0.2032" stop-color="#087CFA"/>
<stop offset="1" stop-color="#6D6E71" stop-opacity="0"/>
</linearGradient>
<linearGradient id="paint10_linear_7_118" x1="24.1631" y1="2.70774" x2="9.96185" y2="7.8202" gradientUnits="userSpaceOnUse">
<stop offset="0.1744" stop-color="#0861FA"/>
<stop offset="0.723" stop-color="#0855FA" stop-opacity="0"/>
</linearGradient>
<linearGradient id="paint11_linear_7_118" x1="32.3849" y1="31.2908" x2="7.2329" y2="27.062" gradientUnits="userSpaceOnUse">
<stop stop-color="#434FCF" stop-opacity="0"/>
<stop offset="1" stop-color="#1B6EEC"/>
</linearGradient>
<linearGradient id="paint12_linear_7_118" x1="15.9999" y1="25.5952" x2="15.9999" y2="28.8882" gradientUnits="userSpaceOnUse">
<stop offset="0.018393" stop-color="#42FFFA"/>
<stop offset="0.8562" stop-color="#07C3F2" stop-opacity="0"/>
</linearGradient>
<linearGradient id="paint13_linear_7_118" x1="28.3886" y1="23.7594" x2="20.4991" y2="26.9783" gradientUnits="userSpaceOnUse">
<stop offset="0.018393" stop-color="#FF39FF" stop-opacity="0.5"/>
<stop offset="0.8562" stop-color="#FF318C" stop-opacity="0"/>
</linearGradient>
<linearGradient id="paint14_linear_7_118" x1="27.9851" y1="2.9918" x2="28.8057" y2="30.2896" gradientUnits="userSpaceOnUse">
<stop offset="0.018393" stop-color="#085EFA"/>
<stop offset="0.8562" stop-color="#FF45ED" stop-opacity="0"/>
</linearGradient>
<linearGradient id="paint15_linear_7_118" x1="24.1798" y1="15.7661" x2="29.9234" y2="16.0186" gradientUnits="userSpaceOnUse">
<stop offset="0.018393" stop-color="#42FFFA"/>
<stop offset="0.8562" stop-color="#07C3F2" stop-opacity="0"/>
</linearGradient>
<linearGradient id="paint16_linear_7_118" x1="19.5174" y1="-1.21515" x2="31.0677" y2="19.8026" gradientUnits="userSpaceOnUse">
<stop offset="0.018393" stop-color="#42FFFA"/>
<stop offset="0.8562" stop-color="#07C3F2" stop-opacity="0"/>
</linearGradient>
<linearGradient id="paint17_linear_7_118" x1="23.5279" y1="3.5067" x2="27.4411" y2="12.7217" gradientUnits="userSpaceOnUse">
<stop offset="0.018393" stop-color="#42FFFA" stop-opacity="0.5"/>
<stop offset="0.8562" stop-color="#07C3F2" stop-opacity="0"/>
</linearGradient>
<linearGradient id="paint18_linear_7_118" x1="1.95405" y1="21.7355" x2="6.24595" y2="4.3785" gradientUnits="userSpaceOnUse">
<stop offset="0.4995" stop-color="#FF318C" stop-opacity="0"/>
<stop offset="0.9613" stop-color="#FCBD36"/>
</linearGradient>
<linearGradient id="paint19_linear_7_118" x1="-2.877" y1="27.8434" x2="3.16585" y2="15.822" gradientUnits="userSpaceOnUse">
<stop offset="0.00131053" stop-color="#5AFFFA" stop-opacity="0.5"/>
<stop offset="0.9231" stop-color="#07C3F2" stop-opacity="0"/>
</linearGradient>
<linearGradient id="paint20_linear_7_118" x1="2.447" y1="17.3229" x2="7.875" y2="14.2933" gradientUnits="userSpaceOnUse">
<stop offset="0.018393" stop-color="#0855FA"/>
<stop offset="0.723" stop-color="#0855FA" stop-opacity="0"/>
</linearGradient>
<linearGradient id="paint21_linear_7_118" x1="6.03045" y1="6.03045" x2="23.5544" y2="23.5544" gradientUnits="userSpaceOnUse">
<stop offset="0.1196" stop-color="#5A044A"/>
<stop offset="0.3733" stop-color="#39032F"/>
<stop offset="0.7299" stop-color="#10010D"/>
<stop offset="0.9138"/>
</linearGradient>
</defs>
</svg>
